<svg width="32" height="31" viewBox="0 0 32 31" fill="none" xmlns="http://www.w3.org/2000/svg">
<g clip-path="url(#clip0_336_7257)">
<path d="M2 8.25H3.30616C3.55218 8.25 3.67519 8.25 3.77418 8.29524C3.86142 8.33511 3.93535 8.39922 3.98715 8.47995C4.04593 8.57154 4.06333 8.69332 4.09812 8.93686L4.57143 12.25M4.57143 12.25L5.62332 19.9814C5.75681 20.9625 5.82355 21.4531 6.0581 21.8223C6.26478 22.1477 6.56108 22.4064 6.91135 22.5674C7.30886 22.75 7.80394 22.75 8.79411 22.75H17.352C18.2945 22.75 18.7658 22.75 19.151 22.5804C19.4905 22.4309 19.7818 22.1898 19.9923 21.8842C20.2309 21.5376 20.3191 21.0747 20.4955 20.1488L21.8191 13.1997C21.8812 12.8738 21.9122 12.7109 21.8672 12.5835C21.8278 12.4718 21.7499 12.3777 21.6475 12.318C21.5308 12.25 21.365 12.25 21.0332 12.25H4.57143ZM10 27.25C10 27.8023 9.55228 28.25 9 28.25C8.44772 28.25 8 27.8023 8 27.25C8 26.6977 8.44772 26.25 9 26.25C9.55228 26.25 10 26.6977 10 27.25ZM18 27.25C18 27.8023 17.5523 28.25 17 28.25C16.4477 28.25 16 27.8023 16 27.25C16 26.6977 16.4477 26.25 17 26.25C17.5523 26.25 18 26.6977 18 27.25Z" stroke="black" stroke-width="2" stroke-linecap="round" stroke-linejoin="round"/>
</g>
<circle cx="22" cy="10" r="10" fill="black"/>
<path d="M21.5025 5.41C22.2675 5.41 22.8825 5.59 23.3625 5.92C23.8425 6.25 24.2025 6.685 24.4725 7.195C24.7425 7.72 24.9225 8.305 25.0125 8.935C25.1025 9.58 25.1475 10.21 25.1625 10.81C25.1625 11.44 25.1025 12.07 25.0125 12.7C24.9225 13.345 24.7425 13.93 24.4725 14.44C24.2025 14.965 23.8425 15.385 23.3625 15.715C22.8825 16.045 22.2675 16.21 21.5025 16.21C20.7375 16.21 20.1225 16.045 19.6425 15.715C19.1625 15.385 18.7875 14.965 18.5175 14.44C18.2475 13.93 18.0675 13.345 17.9775 12.7C17.8875 12.07 17.8425 11.44 17.8425 10.825C17.8425 10.21 17.8875 9.58 17.9775 8.935C18.0675 8.305 18.2475 7.72 18.5175 7.195C18.7875 6.685 19.1625 6.25 19.6425 5.92C20.1225 5.59 20.7375 5.425 21.5025 5.41ZM21.5025 6.205C20.9025 6.205 20.4225 6.37 20.0625 6.67C19.7025 6.985 19.4175 7.375 19.2375 7.825C19.0575 8.29 18.9375 8.785 18.8775 9.325C18.8175 9.865 18.7875 10.36 18.7875 10.81C18.7875 11.275 18.8175 11.77 18.8775 12.31C18.9375 12.85 19.0575 13.345 19.2375 13.81C19.4175 14.275 19.7025 14.665 20.0625 14.965C20.4225 15.28 20.9025 15.43 21.5025 15.43C22.1025 15.43 22.5825 15.28 22.9425 14.965C23.3025 14.665 23.5725 14.275 23.7525 13.81C23.9325 13.345 24.0675 12.85 24.1275 12.31C24.1875 11.77 24.2175 11.275 24.2175 10.81C24.2175 10.36 24.1875 9.865 24.1275 9.325C24.0675 8.785 23.9325 8.29 23.7525 7.825C23.5725 7.375 23.3025 6.985 22.9425 6.67C22.5825 6.37 22.1025 6.205 21.5025 6.205Z" fill="white"/>
<defs>
<clipPath id="clip0_336_7257">
<rect width="24" height="24" fill="white" transform="translate(0 7)"/>
</clipPath>
</defs>
</svg>
