<svg width="32" height="31" viewBox="0 0 32 31" fill="none" xmlns="http://www.w3.org/2000/svg">
<path d="M2.66675 1.66699H4.4083C4.73632 1.66699 4.90034 1.66699 5.03233 1.72731C5.14864 1.78047 5.24721 1.86596 5.31628 1.97359C5.39466 2.09572 5.41786 2.25808 5.46425 2.58281L6.09532 7.00033M6.09532 7.00033L7.49784 17.3089C7.67582 18.617 7.76481 19.2711 8.07755 19.7635C8.35312 20.1973 8.74819 20.5423 9.21522 20.7568C9.74523 21.0003 10.4053 21.0003 11.7256 21.0003H23.1361C24.3928 21.0003 25.0212 21.0003 25.5347 20.7742C25.9875 20.5748 26.3759 20.2534 26.6565 19.846C26.9747 19.3838 27.0922 18.7665 27.3274 17.532L29.0922 8.26658C29.175 7.83207 29.2164 7.61481 29.1564 7.44499C29.1038 7.29602 29 7.17057 28.8635 7.09102C28.7079 7.00033 28.4867 7.00033 28.0444 7.00033H6.09532ZM13.3334 27.0003C13.3334 27.7367 12.7365 28.3337 12.0001 28.3337C11.2637 28.3337 10.6667 27.7367 10.6667 27.0003C10.6667 26.2639 11.2637 25.667 12.0001 25.667C12.7365 25.667 13.3334 26.2639 13.3334 27.0003ZM24.0001 27.0003C24.0001 27.7367 23.4031 28.3337 22.6667 28.3337C21.9304 28.3337 21.3334 27.7367 21.3334 27.0003C21.3334 26.2639 21.9304 25.667 22.6667 25.667C23.4031 25.667 24.0001 26.2639 24.0001 27.0003Z" stroke="black" stroke-width="2" stroke-linecap="round" stroke-linejoin="round"/>
</svg>
