<svg width="25" height="24" viewBox="0 0 25 24" fill="none" xmlns="http://www.w3.org/2000/svg">
<path d="M12.5 15.0002L9.5 12.0002M12.5 15.0002C13.8968 14.469 15.2369 13.799 16.5 13.0002M12.5 15.0002V20.0002C12.5 20.0002 15.53 19.4502 16.5 18.0002C17.58 16.3802 16.5 13.0002 16.5 13.0002M9.5 12.0002C10.0321 10.6197 10.7022 9.29631 11.5 8.05025C12.6652 6.18723 14.2876 4.6533 16.213 3.59434C18.1384 2.53538 20.3027 1.98662 22.5 2.00025C22.5 4.72025 21.72 9.50025 16.5 13.0002M9.5 12.0002H4.5C4.5 12.0002 5.05 8.97025 6.5 8.00025C8.12 6.92025 11.5 8.00025 11.5 8.00025M5 16.5002C3.5 17.7602 3 21.5002 3 21.5002C3 21.5002 6.74 21.0002 8 19.5002C8.71 18.6602 8.7 17.3702 7.91 16.5902C7.52131 16.2193 7.00929 16.0049 6.47223 15.9883C5.93516 15.9717 5.41088 16.154 5 16.5002Z" stroke="black" stroke-width="2" stroke-linecap="round" stroke-linejoin="round"/>
</svg>
