<svg width="25" height="24" viewBox="0 0 25 24" fill="none" xmlns="http://www.w3.org/2000/svg">
<path d="M6.5 20.087H9.11029C9.45063 20.087 9.78888 20.1275 10.1188 20.2085L12.8769 20.8788C13.4753 21.0246 14.0988 21.0387 14.7035 20.9213L17.753 20.328C18.5585 20.1711 19.2996 19.7853 19.8803 19.2204L22.0379 17.1216C22.654 16.5233 22.654 15.5523 22.0379 14.953C21.4832 14.4133 20.6047 14.3526 19.9771 14.8102L17.4626 16.6447C17.1025 16.908 16.6643 17.0497 16.2137 17.0497H13.7855L15.3311 17.0497C16.2022 17.0497 16.9079 16.3632 16.9079 15.5158V15.209C16.9079 14.5054 16.4156 13.8919 15.7141 13.7218L13.3286 13.1416C12.9404 13.0475 12.5428 12.9999 12.1431 12.9999C11.1783 12.9999 9.43189 13.7987 9.43189 13.7987L6.5 15.0248M2.5 14.5999L2.5 20.3999C2.5 20.9599 2.5 21.24 2.60899 21.4539C2.70487 21.642 2.85785 21.795 3.04601 21.8909C3.25992 21.9999 3.53995 21.9999 4.1 21.9999H4.9C5.46005 21.9999 5.74008 21.9999 5.95399 21.8909C6.14215 21.795 6.29513 21.642 6.39101 21.4539C6.5 21.24 6.5 20.9599 6.5 20.3999V14.5999C6.5 14.0398 6.5 13.7598 6.39101 13.5459C6.29513 13.3577 6.14215 13.2048 5.95399 13.1089C5.74008 12.9999 5.46005 12.9999 4.9 12.9999H4.1C3.53995 12.9999 3.25992 12.9999 3.04601 13.1089C2.85785 13.2048 2.70487 13.3577 2.60899 13.5459C2.5 13.7598 2.5 14.0398 2.5 14.5999ZM17.6914 3.59215C17.0946 2.34329 15.7186 1.68168 14.3804 2.32027C13.0423 2.95886 12.4722 4.47328 13.0325 5.80272C13.3787 6.62435 14.3707 8.2199 15.0781 9.31893C15.3394 9.725 15.4701 9.92804 15.661 10.0468C15.8247 10.1487 16.0297 10.2036 16.2224 10.1972C16.4471 10.1898 16.6618 10.0793 17.0911 9.85832C18.2532 9.26021 19.9101 8.37445 20.6208 7.83602C21.7707 6.96481 22.0556 5.36347 21.1947 4.14614C20.3337 2.9288 18.8327 2.80902 17.6914 3.59215Z" stroke="black" stroke-width="2" stroke-linecap="round" stroke-linejoin="round"/>
</svg>
