<svg width="25" height="24" viewBox="0 0 25 24" fill="none" xmlns="http://www.w3.org/2000/svg">
<path d="M7 13L7.78446 14.5689C8.04995 15.0999 8.18269 15.3654 8.36003 15.5954C8.51739 15.7996 8.70041 15.9826 8.90455 16.14C9.13462 16.3173 9.4001 16.4501 9.93108 16.7155L11.5 17.5L9.93108 18.2845C9.4001 18.5499 9.13462 18.6827 8.90455 18.86C8.70041 19.0174 8.51739 19.2004 8.36003 19.4046C8.18269 19.6346 8.04995 19.9001 7.78446 20.4311L7 22L6.21554 20.4311C5.95005 19.9001 5.81731 19.6346 5.63997 19.4046C5.48261 19.2004 5.29959 19.0174 5.09545 18.86C4.86538 18.6827 4.5999 18.5499 4.06892 18.2845L2.5 17.5L4.06892 16.7155C4.5999 16.4501 4.86538 16.3173 5.09545 16.14C5.29959 15.9826 5.48261 15.7996 5.63997 15.5954C5.81731 15.3654 5.95005 15.0999 6.21554 14.5689L7 13Z" stroke="black" stroke-width="2" stroke-linecap="round" stroke-linejoin="round"/>
<path d="M15.5 2L16.6786 5.06442C16.9606 5.79765 17.1016 6.16426 17.3209 6.47264C17.5153 6.74595 17.754 6.98475 18.0274 7.17909C18.3357 7.39836 18.7024 7.53937 19.4356 7.82138L22.5 9L19.4356 10.1786C18.7024 10.4606 18.3357 10.6016 18.0274 10.8209C17.754 11.0153 17.5153 11.254 17.3209 11.5274C17.1016 11.8357 16.9606 12.2024 16.6786 12.9356L15.5 16L14.3214 12.9356C14.0394 12.2024 13.8984 11.8357 13.6791 11.5274C13.4847 11.254 13.246 11.0153 12.9726 10.8209C12.6643 10.6016 12.2976 10.4606 11.5644 10.1786L8.5 9L11.5644 7.82138C12.2976 7.53937 12.6643 7.39836 12.9726 7.17909C13.246 6.98475 13.4847 6.74595 13.6791 6.47264C13.8984 6.16426 14.0394 5.79765 14.3214 5.06442L15.5 2Z" stroke="black" stroke-width="2" stroke-linecap="round" stroke-linejoin="round"/>
</svg>
