<svg width="33" height="32" viewBox="0 0 33 32" fill="none" xmlns="http://www.w3.org/2000/svg">
<path d="M21.8333 8.00033V6.93366C21.8333 5.44019 21.8333 4.69345 21.5427 4.12302C21.287 3.62125 20.8791 3.2133 20.3773 2.95764C19.8069 2.66699 19.0601 2.66699 17.5667 2.66699H15.4333C13.9399 2.66699 13.1931 2.66699 12.6227 2.95764C12.1209 3.2133 11.713 3.62125 11.4573 4.12302C11.1667 4.69345 11.1667 5.44019 11.1667 6.93366V8.00033M13.8333 15.3337V22.0003M19.1667 15.3337V22.0003M4.5 8.00033H28.5M25.8333 8.00033V22.9337C25.8333 25.1739 25.8333 26.294 25.3974 27.1496C25.0139 27.9023 24.4019 28.5142 23.6493 28.8977C22.7936 29.3337 21.6735 29.3337 19.4333 29.3337H13.5667C11.3265 29.3337 10.2064 29.3337 9.3507 28.8977C8.59806 28.5142 7.98613 27.9023 7.60264 27.1496C7.16667 26.294 7.16667 25.1739 7.16667 22.9337V8.00033" stroke="black" stroke-width="2" stroke-linecap="round" stroke-linejoin="round"/>
</svg>
